<svg height='100px' width='100px'  fill="#000000" xmlns="http://www.w3.org/2000/svg" xmlns:xlink="http://www.w3.org/1999/xlink" version="1.1" x="0px" y="0px" viewBox="0 0 100 100" enable-background="new 0 0 100 100" xml:space="preserve"><g><path fill-rule="evenodd" clip-rule="evenodd" d="M50.198,54.137c0.147,0.008,0.532,0.047,0.917,0.047   c12.034-0.006,24.069-0.034,36.104,0.018c0.848,0.004,1.974,0.37,2.475,0.976c0.764,0.924-0.064,1.898-0.696,2.7   c-4.616,5.855-9.263,11.687-13.846,17.567c-0.871,1.117-1.843,1.516-3.244,1.514c-13.051-0.033-26.101,0.081-39.149-0.049   c-3.36-0.035-6.85-0.332-10.046-1.291c-12.968-3.89-16.994-20.391-7.474-29.997c5.858-5.911,11.71-11.83,17.578-17.732   c6.211-6.249,16.09-6.504,22.215-0.59c4.917,4.747,5.996,12.609,2.179,18.26C55.155,48.599,52.563,51.276,50.198,54.137z    M84.517,57.834c-0.548-0.045-0.786-0.079-1.024-0.08c-12.086-0.005-24.169-0.022-36.254,0.031   c-0.638,0.003-1.439,0.466-1.884,0.966c-2.093,2.348-4.04,4.825-6.129,7.176c-3.463,3.896-7.853,5.38-12.907,4.246   c-4.674-1.047-7.931-3.903-9.348-8.604c-1.417-4.698,0.378-9.841,4.268-12.329c3.761-2.407,8.789-1.831,12.404,1.327   c3.148,2.749,4.16,8.854-0.618,12.092c-3.785,2.566-9.245,0.174-9.74-4.367c-0.314-2.882,2.172-5.18,4.563-4.194   c1.085,0.446,1.997,1.133,1.834,2.471c-0.166,1.362-1.208,1.592-2.363,1.581c-0.053,0-0.107,0.134-0.161,0.205   c1.108,2.083,2.943,2.352,4.484,0.659c1.241-1.364,1.415-3.428,0.219-4.895c-1.689-2.069-3.948-3.064-6.606-2.566   c-2.735,0.512-4.313,2.412-4.867,5.045c-1.248,5.924,4.2,11.867,11.68,9.757c5.267-1.485,8.164-7.173,6.813-12.763   c-2.029-8.402-11.91-11.993-19.184-6.842c-4.895,3.466-6.701,8.343-5.651,14.245c1.083,6.087,4.764,10.012,10.655,11.333   c3.707,0.832,7.638,0.85,11.471,0.885c11.575,0.104,23.152,0.047,34.729,0.011c0.639-0.001,1.521-0.188,1.876-0.625   C76.672,67.797,80.487,62.928,84.517,57.834z"></path></g></svg>