<svg height='100px' width='100px'  fill="#000000" xmlns="http://www.w3.org/2000/svg" viewBox="0 0 68 46" x="0px" y="0px"><path fill="#000000" d="M418.769985,795.942733 C418.279722,795.073276 418,794.069304 418,793 L418,792 C418,788.686292 420.686292,786 424,786 L438,786 C441.313708,786 444,788.686292 444,792 L444,793 C444,793.701271 443.879692,794.374442 443.658589,795 L478,795 C481.313708,795 484,797.686292 484,801 L484,802 C484,804.612438 482.330385,806.834916 480,807.658589 L480,830 C480,831.104569 479.104569,832 478,832 C476.895431,832 476,831.104569 476,830 L476,822.828427 L461.171573,808 L438.828427,808 L424,822.828427 L424,830 C424,831.104569 423.104569,832 422,832 C420.895431,832 420,831.104569 420,830 L420,807.658589 C417.669615,806.834916 416,804.612438 416,802 L416,801 C416,798.875487 417.104189,797.00887 418.769985,795.942733 Z M422,799 C420.895431,799 420,799.895431 420,801 L420,802 C420,803.104569 420.895431,804 422,804 L478,804 C479.104569,804 480,803.104569 480,802 L480,801 C480,799.895431 479.104569,799 478,799 L422,799 Z M476,808 L466.828427,808 L476,817.171573 L476,808 Z M424,790 C422.895431,790 422,790.895431 422,792 L422,793 C422,794.104569 422.895431,795 424,795 L438,795 C439.104569,795 440,794.104569 440,793 L440,792 C440,790.895431 439.104569,790 438,790 L424,790 Z M424,808 L424,817.171573 L433.171573,808 L424,808 Z" transform="translate(-416 -786)"></path></svg>