<svg xmlns="http://www.w3.org/2000/svg" xmlns:xlink="http://www.w3.org/1999/xlink" version="1.1" x="0px" y="0px" viewBox="0 0 50 62.5" enable-background="new 0 0 50 50" xml:space="preserve"><g><g><path d="M32.8,34.9h-4.2v12.5c0,0.9-0.7,1.6-1.6,1.6c-0.9,0-1.6-0.7-1.6-1.6V34.9h-9.9v12.5c0,0.9-0.7,1.6-1.6,1.6    c-0.9,0-1.6-0.7-1.6-1.6V34.9H8.2c2.3-5.6,5-6.6,6.1-6.8c0.1,0,1.4,0.1,3.2,0.1c1.8,0.9,4,0.9,5.7,0c1.9,0,3.4,0,3.5,0    C27.7,28.3,30.5,29.3,32.8,34.9z"/><path d="M16.1,22.5c0-2.4,1.9-4.3,4.3-4.3c2.4,0,4.3,1.9,4.3,4.3c0,2.4-2,4.3-4.3,4.3C18,26.8,16.1,24.9,16.1,22.5z"/><path d="M48.8,30.4c-0.1,1.4-0.9,2.6-2.1,3.3l-1.2,13.3c-0.1,1.1-1,1.9-2.1,1.9c-0.1,0-0.1,0-0.2,0c-1.1-0.1-2-1.1-1.9-2.3l1.2-13    c-1.3-0.8-2.2-2.3-2-3.9c0.2-3.2,0-7.8-0.4-9.7c1.8-1.8,3-3.5,3.4-4.1c0.7-1.1,0.7-2.4,0.1-3.4c0.2,0.6,0.2,1.3-0.3,1.9    c-0.3,0.4-1.6,2.3-3.6,4.2c-1.5,1.5-3.4,3.1-5.5,4.1c-1.6-1.4-3.2-2.3-4.6-2.8c-0.1,0-0.3-0.1-0.4-0.2c0.3-0.2,0.7-0.3,1.1-0.3    c2.6,0,5.8-3,7.9-5.3c-0.2-1.6,0.6-3.2,1.9-4c2-1.2,4.5-0.6,5.8,1.4C46.3,12.4,49.6,19.9,48.8,30.4z"/><path d="M30.5,6c0-2.8,2.2-5,5-5c2.7,0,5,2.2,5,5c0,2.7-2.2,5-5,5C32.8,11,30.5,8.7,30.5,6z"/><path d="M4.6,39.3c-0.3,1.3-1.4,1.8-2.2,1.5c-1-0.3-1.5-1.6-1.2-2.7c3.7-15.3,10.6-15.2,13-17.2c-0.5,1.6-0.2,3.7,1,5.4    c-0.2,0-0.4-0.1-0.5-0.2C9.1,26.2,6,33.9,4.6,39.3z"/><path d="M39.7,37.4c0.4,1.4-0.1,3.5-1.6,3.5c-0.8,0-1.5-0.6-1.7-1.6c-1.3-5.4-4.5-13.2-10-13.3c-0.2,0.1-0.6,0.2-0.9,0.2    c1.2-1.7,1.5-3.9,0.9-5.7c0.2,0.1,1,0.8,1.8,1.2C30.2,22.8,36.2,23.8,39.7,37.4z"/></g></g><text x="0" y="65" fill="#000000" font-size="5px" font-weight="bold" font-family="'Helvetica Neue', Helvetica, Arial-Unicode, Arial, Sans-serif">Created by Vectors Market</text><text x="0" y="70" fill="#000000" font-size="5px" font-weight="bold" font-family="'Helvetica Neue', Helvetica, Arial-Unicode, Arial, Sans-serif">from the Noun Project</text></svg>