<svg xmlns="http://www.w3.org/2000/svg" xmlns:xlink="http://www.w3.org/1999/xlink" version="1.1" x="0px" y="0px" viewBox="0 0 50 62.5" enable-background="new 0 0 50 50" xml:space="preserve"><g><g><path d="M20.3,36.4c0-2.6,2.1-4.7,4.7-4.7c2.6,0,4.7,2.1,4.7,4.7c0,2.7-2.2,4.7-4.7,4.7C22.4,41.2,20.3,39,20.3,36.4z"/><path d="M27.2,48.2h-4.4c0.5-1.5-0.7-3.5-2.6-3.7c0,0-1.2-0.2-3.5-0.6l1.1-0.9h14.4l1.1,0.9c-2.3,0.4-3.5,0.6-3.5,0.6    C27.9,44.7,26.7,46.5,27.2,48.2z"/><path d="M21.3,47.7c-0.1,0.9-1,1.5-1.7,1.3c-2.4-0.3-4.5-0.8-7-1.3c-2.7-0.5-3.3-4-1.4-5.5l2.6-2c0.6,0.2,1.3,0.1,2-0.2    c1.1-0.5,1.8-1.6,1.8-2.7c0.1-0.1,0.7-0.5,0.6-0.5c0.1,1,0.3,2,0.8,2.8c0.1,0.1,0.1,0.2,0.2,0.3c-0.1,0.1-6.4,4.9-6,4.6    c0,0,0.1,0.2,0.1,0.2c4.4,0.9,6.7,1.2,6.7,1.2C20.9,46.1,21.5,46.8,21.3,47.7z"/><path d="M13.2,37.9c-4.8-10.4,2.3-23.3,5.1-24.2h0c6.8-2.3,13.5-0.4,14.3,0.5c0.4,0.5,9.7,11.7,4.2,23.7c-0.4,0.8-1.3,1.1-2,0.8    c-0.8-0.4-1.1-1.3-0.7-2v0c3.4-7.4,0-14.8-2.2-18.3c-0.4,5.8-0.4,11.4,0,16.8c-0.1,0-0.1-0.1-0.2-0.1C31,32,28.3,29.7,25,29.7    c-3.3,0-6,2.3-6.6,5.4c-0.1,0-0.1,0-0.2,0.1c0.5-5.8,0.5-11.3,0-16.8c-3.5,5.6-5,12.3-2.2,18.3c0,0,0,0,0,0c0.3,0.8,0,1.6-0.8,2    C14.5,39,13.6,38.7,13.2,37.9z"/><path d="M47.7,44.7v1.7c0,1-0.8,1.8-1.7,1.8h-6.2c0.7-0.6,1.2-1.4,1.5-2.3c0.3-1,0.2-2-0.1-2.9H46C46.9,43,47.7,43.8,47.7,44.7z"/><path d="M10.2,48.2H4c-1,0-1.8-0.8-1.8-1.8v-1.7c0-1,0.8-1.8,1.8-1.8h4.9C8.2,44.9,8.8,46.9,10.2,48.2z"/><path d="M20.3,5.7C20.3,3.1,22.4,1,25,1c2.6,0,4.7,2.1,4.7,4.7c0,2.6-2.1,4.7-4.7,4.7C22.4,10.4,20.3,8.3,20.3,5.7z"/><path d="M37.4,47.7c-1.8,0.4-5.1,1-7,1.3c-0.8,0.1-1.6-0.5-1.7-1.3c-0.1-0.8,0.5-1.6,1.3-1.7c0,0,2.3-0.3,6.7-1.2l0.1-0.1    c-0.1-0.1-6.4-5-6-4.7c0.3-0.5,0.9-1.7,0.9-3.1c0.1,0.1-0.1-0.1,0.6,0.5c0,0.1,0,2,1.8,2.8c0.7,0.3,1.4,0.3,2,0.2l2.6,2    C40.7,43.7,40,47.2,37.4,47.7z"/></g></g><text x="0" y="65" fill="#000000" font-size="5px" font-weight="bold" font-family="'Helvetica Neue', Helvetica, Arial-Unicode, Arial, Sans-serif">Created by Vectors Market</text><text x="0" y="70" fill="#000000" font-size="5px" font-weight="bold" font-family="'Helvetica Neue', Helvetica, Arial-Unicode, Arial, Sans-serif">from the Noun Project</text></svg>